<?xml version="1.0" encoding="UTF-8"?>
<svg width="512" height="512" viewBox="0 0 24 24" version="1.1" xmlns="http://www.w3.org/2000/svg">
    <path fill="#10B981" d="M12 2C6.48 2 2 6.48 2 12s4.48 10 10 10 10-4.48 10-10S17.52 2 12 2zm-1 16.5v-2.42c-2.22-.11-4-1.95-4-4.18 0-1.1.45-2.1 1.17-2.83l1.24 1.24c-.39.39-.63.92-.63 1.51 0 1.17.95 2.12 2.12 2.12.59 0 1.12-.24 1.51-.63l1.24 1.24c-.73.72-1.73 1.17-2.83 1.17v2.78h-.82zM13 7.5c2.22.11 4 1.95 4 4.18 0 1.1-.45 2.1-1.17 2.83l-1.24-1.24c.39-.39.63-.92.63-1.51 0-1.17-.95-2.12-2.12-2.12-.59 0-1.12.24-1.51.63L10.35 8.7c.73-.72 1.73-1.17 2.83-1.17V5h.82v2.5z"/>
</svg>
